<?xml version="1.0" encoding="us-ascii" standalone="no"?><svg xmlns="http://www.w3.org/2000/svg" xmlns:xlink="http://www.w3.org/1999/xlink" contentStyleType="text/css" height="407px" preserveAspectRatio="none" style="width:874px;height:407px;background:#FFFFFF;" version="1.1" viewBox="0 0 874 407" width="874px" zoomAndPan="magnify"><defs/><g><g id="elem_Client"><rect fill="#F1F1F1" height="36.2969" style="stroke:#181818;stroke-width:0.5;" width="57" x="598.5" y="7"/><text fill="#000000" font-family="sans-serif" font-size="14" lengthAdjust="spacing" textLength="43" x="605.5" y="21.9951">Client</text><line style="stroke:#181818;stroke-width:0.5;" x1="599.5" x2="654.5" y1="27.2969" y2="27.2969"/></g><g id="elem_RayonResponsable"><rect fill="#F1F1F1" height="36.2969" style="stroke:#181818;stroke-width:0.5;" width="150" x="126" y="120"/><text fill="#000000" font-family="sans-serif" font-size="14" lengthAdjust="spacing" textLength="136" x="133" y="134.9951">RayonResponsable</text><line style="stroke:#181818;stroke-width:0.5;" x1="127" x2="275" y1="140.2969" y2="140.2969"/></g><g id="elem_Promotion"><rect fill="#F1F1F1" height="36.2969" style="stroke:#181818;stroke-width:0.5;" width="90" x="290" y="252"/><text fill="#000000" font-family="sans-serif" font-size="14" lengthAdjust="spacing" textLength="76" x="297" y="266.9951">Promotion</text><line style="stroke:#181818;stroke-width:0.5;" x1="291" x2="379" y1="272.2969" y2="272.2969"/></g><g id="elem_Stock"><rect fill="#F1F1F1" height="36.2969" style="stroke:#181818;stroke-width:0.5;" width="56" x="149" y="365"/><text fill="#000000" font-family="sans-serif" font-size="14" lengthAdjust="spacing" textLength="42" x="156" y="379.9951">Stock</text><line style="stroke:#181818;stroke-width:0.5;" x1="150" x2="204" y1="385.2969" y2="385.2969"/></g><g id="elem_Product"><rect fill="#F1F1F1" height="36.2969" style="stroke:#181818;stroke-width:0.5;" width="70" x="520" y="365"/><text fill="#000000" font-family="sans-serif" font-size="14" lengthAdjust="spacing" textLength="56" x="527" y="379.9951">Product</text><line style="stroke:#181818;stroke-width:0.5;" x1="521" x2="589" y1="385.2969" y2="385.2969"/></g><g id="elem_MarjaneAdmin"><rect fill="#F1F1F1" height="36.2969" style="stroke:#181818;stroke-width:0.5;" width="116" x="378" y="120"/><text fill="#000000" font-family="sans-serif" font-size="14" lengthAdjust="spacing" textLength="102" x="385" y="134.9951">MarjaneAdmin</text><line style="stroke:#181818;stroke-width:0.5;" x1="379" x2="493" y1="140.2969" y2="140.2969"/></g><g id="elem_Purchase"><rect fill="#F1F1F1" height="36.2969" style="stroke:#181818;stroke-width:0.5;" width="78" x="744" y="186"/><text fill="#000000" font-family="sans-serif" font-size="14" lengthAdjust="spacing" textLength="64" x="751" y="200.9951">Purchase</text><line style="stroke:#181818;stroke-width:0.5;" x1="745" x2="821" y1="206.2969" y2="206.2969"/></g><g id="elem_CaisseAgent"><rect fill="#F1F1F1" height="36.2969" style="stroke:#181818;stroke-width:0.5;" width="103" x="576.5" y="120"/><text fill="#000000" font-family="sans-serif" font-size="14" lengthAdjust="spacing" textLength="89" x="583.5" y="134.9951">CaisseAgent</text><line style="stroke:#181818;stroke-width:0.5;" x1="577.5" x2="678.5" y1="140.2969" y2="140.2969"/></g><g id="elem_Centre"><rect fill="#F1F1F1" height="36.2969" style="stroke:#181818;stroke-width:0.5;" width="64" x="7" y="120"/><text fill="#000000" font-family="sans-serif" font-size="14" lengthAdjust="spacing" textLength="50" x="14" y="134.9951">Centre</text><line style="stroke:#181818;stroke-width:0.5;" x1="8" x2="70" y1="140.2969" y2="140.2969"/></g><g id="elem_Admin"><rect fill="#F1F1F1" height="36.2969" style="stroke:#181818;stroke-width:0.5;" width="60" x="129" y="7"/><text fill="#000000" font-family="sans-serif" font-size="14" lengthAdjust="spacing" textLength="46" x="136" y="21.9951">Admin</text><line style="stroke:#181818;stroke-width:0.5;" x1="130" x2="188" y1="27.2969" y2="27.2969"/></g><!--link Client to RayonResponsable--><g id="link_Client_RayonResponsable"><path codeLine="12" d="M598.184,34.91 C556.134,47.783 475.407,72.009 406,90 C363.232,101.086 332.6671,108.2907 293.7911,116.9217 " fill="none" id="Client-to-RayonResponsable" style="stroke:#181818;stroke-width:1.0;"/><polygon fill="none" points="276.219,120.823,295.0916,122.7791,292.4907,111.0644,276.219,120.823" style="stroke:#181818;stroke-width:1.0;"/><text fill="#000000" font-family="sans-serif" font-size="13" lengthAdjust="spacing" textLength="79" x="468" y="86.0669">Se connecte</text></g><!--link RayonResponsable to Promotion--><g id="link_RayonResponsable_Promotion"><path codeLine="13" d="M174.03,156.138 C164.236,163.937 154.285,174.1 149,186 C142.506,200.623 139.169,209.376 149,222 C166.139,244.008 222.6352,254.9559 271.9852,261.5419 " fill="none" id="RayonResponsable-to-Promotion" style="stroke:#181818;stroke-width:1.0;"/><polygon fill="none" points="289.827,263.923,272.7789,255.5946,271.1915,267.4892,289.827,263.923" style="stroke:#181818;stroke-width:1.0;"/><text fill="#000000" font-family="sans-serif" font-size="13" lengthAdjust="spacing" textLength="56" x="150" y="208.5669">Consulte</text></g><!--link RayonResponsable to Promotion--><g id="link_RayonResponsable_Promotion"><path codeLine="14" d="M207.093,156.109 C214.284,174.312 227.747,203.044 247,222 C259.589,234.395 259.9563,236.4454 275.2853,243.9664 " fill="none" id="RayonResponsable-to-Promotion-1" style="stroke:#181818;stroke-width:1.0;"/><polygon fill="none" points="291.445,251.895,277.9281,238.5798,272.6424,249.353,291.445,251.895" style="stroke:#181818;stroke-width:1.0;"/><text fill="#000000" font-family="sans-serif" font-size="13" lengthAdjust="spacing" textLength="101" x="248" y="208.5669">Accepte/Refuse</text></g><!--link RayonResponsable to Promotion--><g id="link_RayonResponsable_Promotion"><path codeLine="15" d="M276.204,143.517 C305.312,149.393 335.917,161.529 354,186 C368.32,205.379 365.6458,218.1088 355.3148,236.1498 " fill="none" id="RayonResponsable-to-Promotion-2" style="stroke:#181818;stroke-width:1.0;"/><polygon fill="none" points="346.37,251.77,360.5215,239.1314,350.108,233.1682,346.37,251.77" style="stroke:#181818;stroke-width:1.0;"/><text fill="#000000" font-family="sans-serif" font-size="13" lengthAdjust="spacing" textLength="133" x="362" y="208.5669">Ajoute Commentaire</text></g><!--link Promotion to Stock--><g id="link_Promotion_Stock"><path codeLine="16" d="M310.659,288.1 C280.968,308.9594 245.8017,333.665 216.0977,354.5328 " fill="none" id="Promotion-to-Stock" style="stroke:#181818;stroke-width:1.0;"/><polygon fill="none" points="201.369,364.8801,219.5468,359.4424,212.6486,349.6233,201.369,364.8801" style="stroke:#181818;stroke-width:1.0;"/><text fill="#000000" font-family="sans-serif" font-size="13" lengthAdjust="spacing" textLength="80" x="267" y="331.0669">V&#233;rifie Stock</text></g><!--link Promotion to Product--><g id="link_Promotion_Product"><path codeLine="17" d="M368.893,288.1 C410.235,308.9594 463.6386,335.9041 504.9986,356.7719 " fill="none" id="Promotion-to-Product" style="stroke:#181818;stroke-width:1.0;"/><polygon fill="none" points="521.069,364.8801,507.7013,351.4151,502.2959,362.1287,521.069,364.8801" style="stroke:#181818;stroke-width:1.0;"/><text fill="#000000" font-family="sans-serif" font-size="13" lengthAdjust="spacing" textLength="105" x="460" y="331.0669">Consulte Produit</text></g><!--link RayonResponsable to Stock--><g id="link_RayonResponsable_Stock"><path codeLine="18" d="M164.525,156.159 C152.926,163.59 141.446,173.497 135,186 C103.7455,246.626 135.7774,313.8339 156.8184,349.2617 " fill="none" id="RayonResponsable-to-Stock" style="stroke:#181818;stroke-width:1.0;"/><polygon fill="none" points="166.01,364.738,161.9772,346.1979,151.6597,352.3256,166.01,364.738" style="stroke:#181818;stroke-width:1.0;"/><text fill="#000000" font-family="sans-serif" font-size="13" lengthAdjust="spacing" textLength="102" x="133" y="274.5669">Met &#224; jour Stock</text></g><!--link MarjaneAdmin to Promotion--><g id="link_MarjaneAdmin_Promotion"><path codeLine="19" d="M493.782,156.12 C507.679,163.096 520.849,172.748 529,186 C537.382,199.628 538.892,209.425 529,222 C510.841,245.084 449.5503,256.0387 398.1283,262.2697 " fill="none" id="MarjaneAdmin-to-Promotion" style="stroke:#181818;stroke-width:1.0;"/><polygon fill="none" points="380.259,264.435,398.8501,268.2261,397.4065,256.3133,380.259,264.435" style="stroke:#181818;stroke-width:1.0;"/><text fill="#000000" font-family="sans-serif" font-size="13" lengthAdjust="spacing" textLength="135" x="537" y="208.5669">Consulte Statistiques</text></g><!--link Admin to Centre--><g id="link_Admin_Centre"><path codeLine="20" d="M128.836,34.812 C108.455,42.127 82.2226,54.383 65,73 C52.7836,86.205 50.3759,88.4589 46.817,102.5119 " fill="none" id="Admin-to-Centre" style="stroke:#181818;stroke-width:1.0;"/><polygon fill="none" points="42.398,119.961,52.6334,103.9848,41.0006,101.0389,42.398,119.961" style="stroke:#181818;stroke-width:1.0;"/><text fill="#000000" font-family="sans-serif" font-size="13" lengthAdjust="spacing" textLength="78" x="66" y="86.0669">G&#232;re Centre</text></g><!--link Admin to RayonResponsable--><g id="link_Admin_RayonResponsable"><path codeLine="21" d="M154.407,43.221 C151.751,56.488 149.99,75.033 156,90 C160.63,101.532 156.3289,99.6596 165.0419,107.6566 " fill="none" id="Admin-to-RayonResponsable" style="stroke:#181818;stroke-width:1.0;"/><polygon fill="none" points="178.303,119.828,169.099,103.2362,160.9847,112.077,178.303,119.828" style="stroke:#181818;stroke-width:1.0;"/><text fill="#000000" font-family="sans-serif" font-size="13" lengthAdjust="spacing" textLength="76" x="157" y="86.0669">G&#232;re Rayon</text></g><!--link Admin to MarjaneAdmin--><g id="link_Admin_MarjaneAdmin"><path codeLine="22" d="M185.552,43.046 C208.322,57.103 242.367,76.808 274,90 C307.515,103.977 329.1436,110.937 360.5086,119.043 " fill="none" id="Admin-to-MarjaneAdmin" style="stroke:#181818;stroke-width:1.0;"/><polygon fill="none" points="377.936,123.547,362.0099,113.2339,359.0073,124.8522,377.936,123.547" style="stroke:#181818;stroke-width:1.0;"/><text fill="#000000" font-family="sans-serif" font-size="13" lengthAdjust="spacing" textLength="126" x="275" y="86.0669">G&#232;re MarjaneAdmin</text></g><!--link CaisseAgent to Client--><g id="link_CaisseAgent_Client"><path codeLine="23" d="M592.407,119.949 C580.867,112.482 569.4,102.525 563,90 C552.204,68.871 560.5402,58.8933 582.2132,47.2963 " fill="none" id="CaisseAgent-to-Client" style="stroke:#181818;stroke-width:1.0;"/><polygon fill="none" points="598.084,38.804,579.3825,42.006,585.044,52.5865,598.084,38.804" style="stroke:#181818;stroke-width:1.0;"/><text fill="#000000" font-family="sans-serif" font-size="13" lengthAdjust="spacing" textLength="81" x="564" y="86.0669">Ajoute Client</text></g><!--link Client to CaisseAgent--><g id="link_Client_CaisseAgent"><path codeLine="24" d="M637.737,43.144 C642.506,51.755 647.582,62.557 650,73 C653.764,89.254 655.3883,91.4677 648.2473,104.1997 " fill="none" id="Client-to-CaisseAgent" style="stroke:#181818;stroke-width:1.0;"/><polygon fill="none" points="639.442,119.899,653.4804,107.1348,643.0142,101.2646,639.442,119.899" style="stroke:#181818;stroke-width:1.0;"/><text fill="#000000" font-family="sans-serif" font-size="13" lengthAdjust="spacing" textLength="87" x="653" y="86.0669">R&#233;alise Achat</text></g><!--link Client to Purchase--><g id="link_Client_Purchase"><path codeLine="25" d="M655.652,29.494 C683.451,34.406 724.872,46.009 749,73 C777.763,105.176 782.3585,140.7414 782.8905,167.9764 " fill="none" id="Client-to-Purchase" style="stroke:#181818;stroke-width:1.0;"/><polygon fill="none" points="783.242,185.973,788.8893,167.8593,776.8916,168.0936,783.242,185.973" style="stroke:#181818;stroke-width:1.0;"/><text fill="#000000" font-family="sans-serif" font-size="13" lengthAdjust="spacing" textLength="105" x="761" y="86.0669">Historique Achat</text></g><!--link Purchase to Product--><g id="link_Purchase_Product"><path codeLine="26" d="M760.723,222.294 C717.023,256.219 634.7525,320.0875 591.2495,353.8588 " fill="none" id="Purchase-to-Product" style="stroke:#181818;stroke-width:1.0;"/><polygon fill="none" points="577.031,364.8966,594.9288,358.5983,587.5703,349.1193,577.031,364.8966" style="stroke:#181818;stroke-width:1.0;"/><text fill="#000000" font-family="sans-serif" font-size="13" lengthAdjust="spacing" textLength="85" x="721" y="274.5669">D&#233;tails Achat</text></g><!--SRC=[ZP8xRiCm38Ptdq8N2BfhA62uGBi421oWkw8m3LrRIlGO2lGm7Ujp-69bhKSK1m6osUGdyYT_wbq7qh6cHr2kqk6l5LzQjM1FMbcnwo75DqOFsg5MAR1rMduMsRsNkSXQc4uegFS3PdxZZJmAcmis0gs5-gFetT2toK1uNGLvRBNwVhuHnzaMcDHA4G_LCXlUPE6SDPJm_IDaBIMS73orSF3s4RxJtW4r60OIAv2coDa0p-lYx7qQ3HuGuleMK5pZHMc8eBkZ81PTWsFJ3oCD9jOj3RYx1cA5G-lmxC5M1HjyuEnr-ZMGN2dojpO4SewNO2aZGLUtKHn1R3sxVLbekCto1eeddBNJA7gqG8OTnJMNxespDvfHc_yf8vPIYwM_J2DPrzj0_G40]--></g></svg>